<svg width="14" height="14" viewBox="0 0 14 14" fill="none" xmlns="http://www.w3.org/2000/svg">
<g clip-path="url(#clip0_1_47)">
<path d="M10.7734 13.1251C10.6814 13.1254 10.5915 13.0967 10.5167 13.043L7.00001 10.4935L3.48333 13.043C3.4082 13.0975 3.31768 13.1267 3.22487 13.1264C3.13206 13.126 3.04176 13.0962 2.96703 13.0411C2.89229 12.9861 2.837 12.9087 2.80914 12.8202C2.78128 12.7317 2.78229 12.6366 2.81204 12.5486L4.1836 8.48618L0.628916 6.04849C0.551919 5.99575 0.493807 5.91976 0.463069 5.83164C0.432331 5.74352 0.430579 5.64788 0.458068 5.55869C0.485558 5.4695 0.540849 5.39144 0.615863 5.33591C0.690876 5.28038 0.781681 5.2503 0.87501 5.25005H5.2604L6.58384 1.1772C6.61235 1.08927 6.66798 1.01263 6.74274 0.95827C6.81751 0.903913 6.90757 0.874634 7.00001 0.874634C7.09245 0.874634 7.18251 0.903913 7.25728 0.95827C7.33204 1.01263 7.38767 1.08927 7.41618 1.1772L8.73962 5.25142H13.125C13.2185 5.25137 13.3095 5.28125 13.3847 5.33667C13.4599 5.39209 13.5155 5.47014 13.5431 5.5594C13.5708 5.64866 13.5691 5.74443 13.5384 5.83268C13.5077 5.92094 13.4496 5.99705 13.3725 6.04986L9.81642 8.48618L11.1872 12.5476C11.2094 12.6133 11.2156 12.6834 11.2054 12.752C11.1952 12.8207 11.1687 12.8859 11.1283 12.9423C11.0879 12.9988 11.0346 13.0448 10.9729 13.0765C10.9112 13.1083 10.8429 13.1249 10.7734 13.1251Z" fill="black"/>
</g>
<defs>
<clipPath id="clip0_1_47">
<rect width="14" height="14" fill="white"/>
</clipPath>
</defs>
</svg>
